<svg width="960" height="540" viewBox="0 0 960 540" fill="none" xmlns="http://www.w3.org/2000/svg">
  <rect width="960" height="540" fill="#020406"/>
  <g opacity="0.18" stroke="#FFFFFF" stroke-width="1">
    <path d="M80 132H880"/>
    <path d="M80 270H880"/>
    <path d="M80 408H880"/>
    <path d="M210 56V484"/>
    <path d="M480 56V484"/>
    <path d="M750 56V484"/>
  </g>
  <g transform="translate(480 270)">
    <circle r="196" stroke="#00EAFF" stroke-width="2" opacity="0.18"/>
    <circle r="138" stroke="#00EAFF" stroke-width="2" opacity="0.26"/>
    <circle r="78" stroke="#00EAFF" stroke-width="2" opacity="0.36"/>
    <path d="M0 -220V220" stroke="#00EAFF" stroke-width="2" opacity="0.18"/>
    <path d="M-220 0H220" stroke="#00EAFF" stroke-width="2" opacity="0.18"/>
    <path d="M0 0L166 -112" stroke="#00EAFF" stroke-width="4" opacity="0.46"/>
  </g>
  <g stroke-width="2">
    <circle cx="646" cy="158" r="18" stroke="#BD00FF" opacity="0.78"/>
    <circle cx="646" cy="158" r="5" fill="#BD00FF" opacity="0.9"/>
    <circle cx="346" cy="338" r="16" stroke="#22C55E" opacity="0.74"/>
    <circle cx="346" cy="338" r="5" fill="#22C55E" opacity="0.9"/>
    <circle cx="558" cy="352" r="13" stroke="#FACC15" opacity="0.72"/>
    <circle cx="558" cy="352" r="4" fill="#FACC15" opacity="0.88"/>
    <circle cx="300" cy="202" r="15" stroke="#F87171" opacity="0.74"/>
    <circle cx="300" cy="202" r="5" fill="#F87171" opacity="0.9"/>
  </g>
  <g opacity="0.32">
    <path d="M632 158H744" stroke="#BD00FF" stroke-width="2"/>
    <path d="M346 338H236" stroke="#22C55E" stroke-width="2"/>
    <path d="M558 352H672" stroke="#FACC15" stroke-width="2"/>
    <path d="M300 202H196" stroke="#F87171" stroke-width="2"/>
  </g>
  <g opacity="0.28">
    <path d="M118 84H252V90H118V84Z" fill="#00EAFF"/>
    <path d="M706 448H842V454H706V448Z" fill="#BD00FF"/>
    <path d="M104 460H184V464H104V460Z" fill="#22C55E"/>
    <path d="M770 76H858V80H770V76Z" fill="#FACC15"/>
  </g>
</svg>
